<?xml version="1.0" encoding="utf-8"?>
<!-- Generator: Adobe Illustrator 23.0.3, SVG Export Plug-In . SVG Version: 6.00 Build 0)  -->
<svg version="1.1" id="Layer_1" xmlns="http://www.w3.org/2000/svg" xmlns:xlink="http://www.w3.org/1999/xlink" x="0px" y="0px"
	 viewBox="0 0 40 29" style="enable-background:new 0 0 40 29;" xml:space="preserve">
<style type="text/css">
	.st0{enable-background:new    ;}
	.st1{fill:#FFFFFF;}
</style>
<title>youtube-play - FontAwesome</title>
<desc>Created with Sketch.</desc>
<g id="Symbols">
	<g id="Footer" transform="translate(-1572.000000, -1757.000000)">
		<g id="Group-19" transform="translate(1316.000000, 1751.000000)">
			<g class="st0">
				<path class="st1" d="M290,7.1c0.8,0.1,2.5,0.1,4,1.7c0,0,1.2,1.2,1.6,4c0.4,3.2,0.4,6.5,0.4,6.5v3c0,0,0,3.2-0.4,6.5
					c-0.4,2.7-1.6,4-1.6,4c-1.5,1.6-3.2,1.6-4,1.7c0,0-5.6,0.4-14,0.4c-10.4-0.1-13.6-0.4-13.6-0.4c-0.9-0.2-2.9-0.1-4.4-1.7
					c0,0-1.2-1.2-1.6-4c-0.4-3.2-0.4-6.5-0.4-6.5v-3c0,0,0-3.2,0.4-6.5c0.4-2.8,1.6-4,1.6-4c1.5-1.6,3.2-1.6,4-1.7
					c0,0,5.6-0.4,14-0.4S290,7.1,290,7.1z M282.7,20.3l-10.8-5.6v11.2L282.7,20.3z"/>
			</g>
		</g>
	</g>
</g>
</svg>
