<?xml version="1.0" encoding="UTF-8"?>
<svg width="36px" height="29px" viewBox="0 0 36 29" version="1.1" xmlns="http://www.w3.org/2000/svg" xmlns:xlink="http://www.w3.org/1999/xlink">
    <!-- Generator: Sketch 58 (84663) - https://sketch.com -->
    <title></title>
    <desc>Created with Sketch.</desc>
    <g id="Symbols" stroke="none" stroke-width="1" fill="none" fill-rule="evenodd">
        <g id="Footer" transform="translate(-1393.000000, -1757.000000)" fill="#FFFFFF" fill-rule="nonzero">
            <g id="Group-19" transform="translate(1316.000000, 1751.000000)">
                <path d="M112.160757,9.82139856 C111.178613,11.2499717 109.950933,12.5222946 108.544682,13.5490816 C108.567003,13.8615819 108.567003,14.1740823 108.567003,14.4865827 C108.567003,24.0178441 101.31253,35 88.0535858,35 C83.9687595,35 80.1741121,33.8169629 76.982144,31.763389 C77.5625019,31.8303534 78.1205382,31.8526748 78.7232175,31.8526748 C82.0937573,31.8526748 85.1964395,30.7142806 87.6741211,28.772314 C84.5044744,28.7053496 81.8482213,26.6294543 80.9330416,23.772308 C81.3794707,23.8392724 81.8258998,23.8839153 82.2946504,23.8839153 C82.9419726,23.8839153 83.5892948,23.7946295 84.1919741,23.6383793 C80.9689737,22.9850684 78.532071,20.2071693 78.415115,16.8178033 L78.4107172,16.4731922 L78.4107172,16.4731922 C79.3705397,17.0089071 80.4866125,17.343729 81.6696496,17.3883719 C79.727683,16.0937275 78.4553601,13.8839034 78.4553601,11.3839004 C78.4553601,10.0446131 78.8125034,8.81693307 79.4375041,7.74550322 C82.9866155,12.1205084 88.3214433,14.9776547 94.3035932,15.2901551 C94.191986,14.7544402 94.1250216,14.1964038 94.1250216,13.6383674 C94.1250216,9.66514837 97.3393112,6.42853737 101.334852,6.42853737 C103.410747,6.42853737 105.285749,7.29907412 106.602715,8.7053258 C108.232181,8.39282542 109.794683,7.79014613 111.178613,6.96425229 C110.642898,8.63836143 109.504504,10.0446131 108.008967,10.9374713 C109.459861,10.7812211 110.866113,10.3794349 112.160757,9.82139856 Z" id=""></path>
            </g>
        </g>
    </g>
</svg>