<?xml version="1.0" encoding="utf-8"?>
<!-- Generator: Adobe Illustrator 23.0.3, SVG Export Plug-In . SVG Version: 6.00 Build 0)  -->
<svg version="1.1" id="Layer_1" xmlns="http://www.w3.org/2000/svg" xmlns:xlink="http://www.w3.org/1999/xlink" x="0px" y="0px"
	 viewBox="0 0 35 35" style="enable-background:new 0 0 35 35;" xml:space="preserve">
<style type="text/css">
	.st0{enable-background:new    ;}
	.st1{fill:#FFFFFF;}
</style>
<title>instagram - FontAwesome</title>
<desc>Created with Sketch.</desc>
<g id="Symbols">
	<g id="Footer" transform="translate(-1483.000000, -1754.000000)">
		<g id="Group-19" transform="translate(1316.000000, 1751.000000)">
			<g class="st0">
				<path class="st1" d="M201.2,27.8c-0.1,2.7-0.8,5.2-2.8,7.2s-4.4,2.6-7.2,2.8c-2.4,0.1-4.7,0.1-7.1,0.1s-4.7,0-7.1-0.1
					c-2.7-0.1-5.2-0.8-7.2-2.8c-2-2-2.6-4.4-2.8-7.2c-0.1-2.4-0.1-4.7-0.1-7.1s0-4.7,0.1-7.1c0.1-2.7,0.8-5.2,2.8-7.2
					c2-2,4.4-2.6,7.2-2.8c2.4-0.1,4.7-0.1,7.1-0.1s4.7,0,7.1,0.1c2.7,0.1,5.2,0.8,7.2,2.8s2.6,4.4,2.8,7.2c0.1,2.4,0.1,4.7,0.1,7.1
					S201.3,25.4,201.2,27.8z M174,7.3c-0.8,0.3-1.4,0.7-2,1.3c-0.6,0.6-1,1.2-1.3,2c-0.9,2.3-0.7,7.6-0.7,10.1s-0.2,7.9,0.7,10.1
					c0.3,0.8,0.7,1.4,1.3,2c0.6,0.6,1.2,1,2,1.3c2.3,0.9,7.6,0.7,10.1,0.7s7.9,0.2,10.1-0.7c0.8-0.3,1.4-0.7,2-1.3s1-1.2,1.3-2
					c0.9-2.3,0.7-7.6,0.7-10.1s0.2-7.9-0.7-10.1c-0.3-0.8-0.7-1.4-1.3-2s-1.2-1-2-1.3c-2.3-0.9-7.6-0.7-10.1-0.7S176.3,6.4,174,7.3z
					 M184.1,29.5c-4.9,0-8.8-3.9-8.8-8.8s3.9-8.8,8.8-8.8c4.9,0,8.8,3.9,8.8,8.8S189,29.5,184.1,29.5z M184.1,15
					c-3.1,0-5.7,2.6-5.7,5.7s2.6,5.7,5.7,5.7s5.7-2.6,5.7-5.7S187.3,15,184.1,15z M193.3,13.6c-1.1,0-2.1-0.9-2.1-2.1
					c0-1.1,0.9-2.1,2.1-2.1s2.1,0.9,2.1,2.1C195.4,12.7,194.4,13.6,193.3,13.6z"/>
			</g>
		</g>
	</g>
</g>
</svg>
