<svg xmlns="http://www.w3.org/2000/svg" viewBox="0 0 384 205.31"><defs><style>.cls-1{fill:#0080c9;}</style></defs><title>Asset 1</title><g id="Layer_2" data-name="Layer 2"><g id="Layer_1-2" data-name="Layer 1"><path class="cls-1" d="M47.83,35.63C46.8,48.24,37.63,56.36,25,56.36,8.59,56.36,0,44.52,0,28.91,0,13.07,7.56,0,24.78,0c14,0,21.94,8.28,23,21.94l-15.63.81c.15-4.64-1.6-10.48-7.26-10.48-7.42,0-7.75,11.44-7.75,16.64,0,5.53.33,14.88,7.91,14.88,5.18,0,7.17-4.55,7.41-9.13Z"/><path class="cls-1" d="M78.19,55.53V30.12c0-2.72-.56-5.05-3.88-5.05a4.54,4.54,0,0,0-3.79,2A5.62,5.62,0,0,0,69.64,31V55.53H53.87V.83H69.64V19.46a14.23,14.23,0,0,1,11.58-5.54c4,0,8.19,1.08,10.41,4.42C94,21.88,94,25.79,94,30V55.53Z"/><path class="cls-1" d="M116.62,55.54H100.86V14.75h15.76Zm0-44.72H100.86V0h15.76Z"/><rect class="cls-1" x="125.09" y="0.83" width="15.77" height="54.7"/><path class="cls-1" d="M172.32,38.5c0,2,.14,3.41-1,5.19a4,4,0,0,1-3.52,2.06c-5,0-5.22-6.38-5.22-10a40.75,40.75,0,0,1,.8-7.58c.49-2.46,1.69-4.3,4.49-4.3a4.31,4.31,0,0,1,3.45,1.6c1,1.27,1,3.19,1,4.78Zm15.75,17V.83H172.32V18a13.77,13.77,0,0,0-9.79-4.11c-12.29,0-16.28,10.92-16.28,21.4,0,10.11,4.07,21,15.8,21,5.09,0,8.52-1.76,10.82-6.24H173v5.4Z"/><path class="cls-1" d="M208,23c1.36-5.66,4.31-9.6,10.57-9.11l2.15.14V28.37a11.66,11.66,0,0,0-3-.41c-2.55,0-5.18.47-6.46,2.81-1.12,2-1.12,4.64-1.12,7.05V55.54H194.36V14.75h13.48V23Z"/><path class="cls-1" d="M241.91,30.4c-.16-3.8,1.52-7.12,5.66-7.12,4.47,0,5.73,3.07,5.73,7.12ZM254.35,41c-.65,3.54-2.64,5-6.22,5-4.79,0-6.38-3.21-6.14-7.62h27.25V36.19c0-13.47-8.28-22.26-21.84-22.26-5.81,0-12,2-16.17,6.31a23,23,0,0,0-6,15.47A20.38,20.38,0,0,0,232,51c4.62,4.05,10.44,5.32,16.42,5.32,9.65,0,18.4-4.53,20.87-14.42Z"/><path class="cls-1" d="M289.37,14.75V20.4h.16c1.92-4.62,6.62-6.48,11.55-6.48,3.81,0,8.2,1.08,10.58,4.24,2.55,3.33,2.55,8,2.55,12.2V55.53H298.46V30.76c0-2.48,0-5.92-3.45-5.92-4.39,0-4.8,3.75-4.8,7.13V55.53H274.45V14.75Z"/><polygon class="cls-1" points="336.67 12.31 329.18 24.42 322.87 24.42 328.38 13.58 322.87 13.58 322.87 0.83 336.67 0.83 336.67 12.31"/><path class="cls-1" d="M355.15,42.29c.87,3.92,5.25,4.4,8.68,4.4,1.6,0,6.06-.16,6.06-2.56,0-2.08-5.43-2.49-6.86-2.63-8.53-1.21-18.65-2.88-18.65-13.75a12.42,12.42,0,0,1,6.3-10.7c4-2.49,8.53-3.13,13.07-3.13,7.66,0,15.7,3,18.41,10.63l-12,2.33c-1.2-2.81-4.3-3.6-7.1-3.6-1.27,0-5.1.41-5.1,2.16,0,1.27,1.36,1.84,2.39,2.08a63.88,63.88,0,0,0,6.87.95c3.65.48,7.8,1.05,11.06,3A11.89,11.89,0,0,1,384,41.89c0,11.27-11.88,14.46-21.05,14.46s-17.45-3-20.48-12.38Z"/><polygon class="cls-1" points="60.23 128.71 44.59 128.71 44.59 89.61 44.43 89.61 34.47 128.71 23.8 128.71 13.52 89.61 13.36 89.61 13.36 128.71 0.79 128.71 0.79 73.99 22.68 73.99 30.48 103.02 30.64 103.02 38.13 73.99 60.23 73.99 60.23 128.71"/><path class="cls-1" d="M92.88,128.71v-6.62h-.15c-1.67,5.25-7.07,7.45-12.32,7.45-3.35,0-6.62-.78-9.08-3.11-2.86-2.87-3.19-6.48-3.19-10.32V87.91H83.91v24.67c0,2.66-.08,5.46,3.52,5.46a4.27,4.27,0,0,0,3.82-2.33,8.9,8.9,0,0,0,.81-4.32V87.91h15.75v40.8Z"/><path class="cls-1" d="M126.5,115.46c.88,3.9,5.27,4.38,8.7,4.38,1.59,0,6.05-.16,6.05-2.54,0-2.08-5.42-2.48-6.84-2.64-8.54-1.19-18.66-2.87-18.66-13.74,0-4.64,2.47-8.31,6.3-10.71,4-2.48,8.53-3.12,13.07-3.12,7.65,0,15.69,3,18.42,10.63l-12,2.33c-1.21-2.8-4.31-3.61-7.09-3.61-1.28,0-5.11.4-5.11,2.16,0,1.29,1.35,1.84,2.38,2.08a62.25,62.25,0,0,0,6.86,1c3.66.47,7.82,1,11.08,3a11.86,11.86,0,0,1,5.74,10.39c0,11.26-11.88,14.46-21,14.46s-17.45-3-20.49-12.38Z"/><path class="cls-1" d="M174.39,103.56c-.16-3.79,1.52-7.12,5.66-7.12,4.47,0,5.73,3.09,5.73,7.12Zm12.43,10.59c-.63,3.53-2.63,5-6.21,5-4.79,0-6.38-3.2-6.14-7.62h27.25v-2.15c0-13.47-8.3-22.26-21.83-22.26-5.82,0-12,2-16.18,6.31a23.05,23.05,0,0,0-6,15.48,20.33,20.33,0,0,0,6.69,15.32c4.61,4,10.44,5.34,16.41,5.34,9.65,0,18.42-4.53,20.88-14.42Z"/><path class="cls-1" d="M231.67,128.71v-6.62h-.16c-1.67,5.25-7.07,7.45-12.32,7.45-3.34,0-6.61-.78-9.08-3.11-2.86-2.87-3.19-6.48-3.19-10.32V87.91h15.77v24.67c0,2.66-.08,5.46,3.52,5.46a4.27,4.27,0,0,0,3.82-2.33,8.88,8.88,0,0,0,.79-4.32V87.91H246.6v40.8Z"/><path class="cls-1" d="M269.34,87.91v5.43h.15c2.24-4.16,6.34-6.27,11.16-6.27,5,0,9,1.88,11.46,6.27,2.8-4.55,6.91-6.27,12.26-6.27,3.43,0,7.1,1,9.48,3.54,3,3,3,7,3,11.3v26.8H301.36V104.16c0-2.64.32-5.61-3.38-5.61-4.51,0-4.35,4.17-4.35,7.45v22.71H278.17V104.16c0-2.57-.16-5.85-3.62-5.85-3.78,0-4.11,2.8-4.11,5.87v24.53H255V87.91Z"/><polygon class="cls-1" points="48.33 204.36 31.55 204.36 31.55 183.13 18.65 183.13 18.65 204.36 1.88 204.36 1.88 149.66 18.65 149.66 18.65 169.86 31.55 169.86 31.55 149.66 48.33 149.66 48.33 204.36"/><path class="cls-1" d="M76,172.72c5.39,0,5.47,7.11,5.47,11,0,11-2.63,11.75-5.47,11.75s-5.45-.8-5.45-11.75c0-3.93.07-11,5.45-11m0-10c-12.7,0-22.35,8.47-22.35,21.57,0,12.4,10,20.87,22.35,20.87s22.36-8.47,22.36-20.87c0-13.1-9.64-21.57-22.36-21.57"/><path class="cls-1" d="M127.87,204.36v-6.62h-.16c-1.66,5.27-7.06,7.45-12.32,7.45-3.34,0-6.6-.78-9.07-3.09-2.87-2.89-3.18-6.49-3.18-10.34v-28.2h15.75v24.69c0,2.64-.06,5.44,3.52,5.44a4.31,4.31,0,0,0,3.84-2.32A9.11,9.11,0,0,0,127,187V163.56H142.8v40.8Z"/><path class="cls-1" d="M161.5,191.12c.88,3.91,5.26,4.39,8.69,4.39,1.6,0,6.06-.16,6.06-2.56,0-2.08-5.43-2.48-6.87-2.64-8.52-1.19-18.65-2.87-18.65-13.73,0-4.64,2.48-8.32,6.3-10.71,4-2.49,8.54-3.13,13.08-3.13,7.65,0,15.69,3,18.4,10.64l-12,2.32c-1.2-2.8-4.29-3.6-7.1-3.6-1.27,0-5.1.41-5.1,2.15,0,1.29,1.36,1.85,2.4,2.08a61.24,61.24,0,0,0,6.86,1c3.65.48,7.8,1,11.07,3a11.87,11.87,0,0,1,5.74,10.39c0,11.25-11.88,14.46-21,14.46s-17.44-3-20.48-12.39Z"/><path class="cls-1" d="M190.83,174V163.57h6.62l1.19-13,13.76-.48v13.48h8.08V174h-8V188c0,3-.31,5.29,3.43,5.29a18.36,18.36,0,0,0,4.55-.72V204l-9.32,1.17a12.88,12.88,0,0,1-11.39-4.11c-3.12-3.37-3-7.28-3-11.68V174Z"/><path class="cls-1" d="M246.67,172.72c5.38,0,5.46,7.11,5.46,11,0,11-2.61,11.75-5.46,11.75s-5.47-.8-5.47-11.75c0-3.93.09-11,5.47-11m0-10c-12.7,0-22.35,8.47-22.35,21.57,0,12.4,10,20.87,22.35,20.87S269,196.71,269,184.31c0-13.1-9.65-21.57-22.36-21.57"/><path class="cls-1" d="M288.75,163.56v5.67h.16c1.91-4.63,6.61-6.49,11.54-6.49,3.82,0,8.21,1.09,10.59,4.24,2.55,3.33,2.55,8,2.55,12.21v25.17H297.82V179.59c0-2.5,0-5.92-3.43-5.92-4.41,0-4.81,3.75-4.81,7.12v23.57H273.82v-40.8Z"/></g></g></svg>