<?xml version="1.0" encoding="UTF-8"?>
<svg width="42px" height="43px" viewBox="0 0 42 43" version="1.1" xmlns="http://www.w3.org/2000/svg" xmlns:xlink="http://www.w3.org/1999/xlink">
    <!-- Generator: Sketch 60 (88103) - https://sketch.com -->
    <title></title>
    <desc>Created with Sketch.</desc>
    <g id="Outreach-Program-Details" stroke="none" stroke-width="1" fill="none" fill-rule="evenodd">
        <g id="Para-Los-Ninos-Details" transform="translate(-1419.000000, -220.000000)" fill="#00C9B7" fill-rule="nonzero">
            <path d="M1440,262.3 C1443.8,262.3 1447.31667,261.35 1450.55,259.45 C1453.68333,257.65 1456.15,255.183333 1457.95,252.05 C1459.85,248.816667 1460.8,245.3 1460.8,241.5 C1460.8,237.7 1459.85,234.183333 1457.95,230.95 C1456.15,227.816667 1453.68333,225.35 1450.55,223.55 C1447.31667,221.65 1443.8,220.7 1440,220.7 C1436.23333,220.7 1432.73333,221.65 1429.5,223.55 C1426.36667,225.383333 1423.88333,227.866667 1422.05,231 C1420.15,234.233333 1419.2,237.733333 1419.2,241.5 C1419.2,245.266667 1420.15,248.766667 1422.05,252 C1423.85,255.133333 1426.31667,257.616667 1429.45,259.45 C1432.68333,261.35 1436.2,262.3 1440,262.3 Z M1435.8,251.95 L1425.45,241.5 L1428.4,238.55 L1435.8,246 L1451.6,230.15 L1454.55,233.2 L1435.8,251.95 Z" id=""></path>
        </g>
    </g>
</svg>