<svg xmlns="http://www.w3.org/2000/svg" viewBox="0 0 172.06 171.66"><defs><style>.cls-1{fill:#fff;}</style></defs><title>Asset 1</title><g id="Layer_2" data-name="Layer 2"><g id="Layer_1-2" data-name="Layer 1"><path class="cls-1" d="M164.46,88.87c-7.71-22.32-10.14-30.7,7.59-51.16L135.09.77C127.14,7.39,109.89,19,86,0,62,19.14,45.28,7.21,37,.77L0,37.71c17.63,20.46,16,28.9,7.58,51.16-3.78,10-4,16.68-4,23.69,0,10.42,4.08,21.87,10.8,29,10.49,11.07,18.39,13.08,35.81,14.78,15.54,1.51,27.1,4,35.81,15.34,8.72-11.56,20.81-13.92,35.81-15.34,17.74-1.69,25.67-3.5,35.81-14.78,6.37-7.07,10.8-18.56,10.8-29A63.25,63.25,0,0,0,164.46,88.87Zm-9.28,51C145.72,150,139.07,151.77,122,153.47c-13.58,1.37-27.07,3.61-36,13.65-8.89-10-22.35-12.13-36-13.65-17-1.89-23.37-3.68-33.15-13.64-6.21-6.31-10.24-17.05-10.24-27.27A66.6,66.6,0,0,1,11,88.3c9.2-23.7,7.17-33.72-7-50.39L37.33,4.56S58.93,24.44,86,3.42c27.28,21,48.69,1.14,48.69,1.14l33.35,33.35c-13.85,16.67-15.83,26.52-7,50.39a70.74,70.74,0,0,1,4.35,24.26C165.4,123,161.31,133.23,155.18,139.83Z"/><path class="cls-1" d="M40.28,37.77c0-4.86-4.06-4.3-5.06-4.3v8.79C35.94,42.26,40.29,43.24,40.28,37.77Z"/><path class="cls-1" d="M121.09,37.77c0-4.86-4-4.3-5-4.3v8.79C116.76,42.26,121.1,43.24,121.09,37.77Z"/><path class="cls-1" d="M160.67,38.28,134.14,11.75S113.3,28.23,86,10.42c-27.28,17.81-48.13,1.33-48.13,1.33L11.35,38.28c7.41,9.47,15.56,23.12,6.47,47C10,105.76,9.1,123.72,21.6,136.42c8.9,9,16.89,10,29.37,11.75C65.56,150.25,72.19,150.06,86,159c13.84-8.91,20.84-8.72,35.05-10.8,12.33-1.82,20.39-2.78,29.37-11.75,12.69-12.7,11.46-30.73,3.79-51.15C145.32,61.58,153.19,47.75,160.67,38.28ZM134.6,44.4c-3.48-2.06-7.4-3.63-7.3-8.69,0-1.39.3-6.7,7.26-6.7s7.46,4.39,7.37,7.82H137.1c0-5.36-5.28-4.55-5.23-1.22,0,1.85,3.4,3.8,6.2,5.52a8.52,8.52,0,0,1,4.32,6.77c0,2.4-1,6.89-7.83,6.89s-7.47-5.14-7.49-8.06h4.63c0,6,5.6,5.24,5.65,1.35C137.35,48.08,137.69,46.26,134.6,44.4ZM111.13,29.78H116c1.7,0,9.84-.91,9.59,8.68-.19,8.63-8.22,7.8-9.59,7.85v8h-4.91Zm-9.76.09h4.92V54.19h-4.92Zm-12.62,0h4.9V50.38H99v3.81H88.75Zm-12.67-.05H81V50.34h5.31v3.8H76.08Zm-9.85,0h4.92V54.19H66.23Zm-18.9,0h4.53v9.62h4.68V29.87H61.3V54.19H56.54V43.78H51.86V54.19H47.33Zm-17-.09h4.93c1.69,0,9.84-.91,9.58,8.68-.19,8.63-8.21,7.8-9.58,7.85v8H30.29Zm96.65,110.63C110.13,143,101,142.13,86,150.44c-15-8.31-23-7.17-40.92-10-30-4.78-26.69-30.87-24.89-39,.34-1.54,1-4.14,1.49-5.56,2.24-6.41,8-20.16,6.92-33.64h114.8c-.87,12.91,4.39,25.82,6.71,32.57a72.17,72.17,0,0,1,2,7.89C153.91,112,155.67,136,126.94,140.41Z"/><path class="cls-1" d="M74.63,74.39C58.54,69.07,47,77.7,40.91,94.56c-4.31,12-8.24,26.51,4.82,31.54,8.2,3.16,22.09,1.89,28.43-8.53,5.08-8.35,7.58-21.31-2.55-25C62.66,89.36,57,94.17,57,94.17s3.85-12.71,9.82-12.71c3.88,0,3,5.57,3,5.57l13.55,1C84.19,85.59,83,77.12,74.63,74.39ZM60.33,99.86c4.55.94,3,7,1.39,11.26s-4.8,9-8.73,8c-3.67-1-2-7.8-.13-12.12C54.54,103.19,57,99.16,60.33,99.86Z"/><path class="cls-1" d="M124.57,74.39C109,69.16,97,77.31,90.85,94.56c-4.29,12-8.24,26.51,4.82,31.54,8.2,3.16,22.08,1.89,28.43-8.53,5.09-8.35,7.58-21.31-2.56-25-8.94-3.23-14.65,1.58-14.65,1.58s3.86-12.71,9.82-12.71c3.89,0,3,5.57,3,5.57l13.55,1C134.13,85.59,132.93,77.15,124.57,74.39ZM110.28,99.86c4.53.94,3,7,1.38,11.26s-4.8,9-8.73,8c-3.66-1-2.14-7.8-.23-12.12C104.36,103.19,106.92,99.16,110.28,99.86Z"/><path class="cls-1" d="M166.54,148.17a5.5,5.5,0,1,0,5.52,5.47A5.49,5.49,0,0,0,166.54,148.17Zm0,10.19a4.69,4.69,0,1,1,4.51-4.72A4.54,4.54,0,0,1,166.54,158.36Z"/><path class="cls-1" d="M169.13,152.29c0-1.24-.72-1.84-2.25-1.84H164.4v6.42h1v-2.76h1l1.76,2.76h1.07L167.44,154A1.65,1.65,0,0,0,169.13,152.29Zm-2.69,1h-1v-2h1.32c.67,0,1.41.13,1.41,1C168.13,153.26,167.32,153.3,166.44,153.3Z"/></g></g></svg>